<?xml version="1.0" encoding="UTF-8" standalone="no"?>
<svg
   xmlns:dc="http://purl.org/dc/elements/1.1/"
   xmlns:cc="http://creativecommons.org/ns#"
   xmlns:rdf="http://www.w3.org/1999/02/22-rdf-syntax-ns#"
   xmlns:svg="http://www.w3.org/2000/svg"
   xmlns="http://www.w3.org/2000/svg"
   xmlns:sodipodi="http://sodipodi.sourceforge.net/DTD/sodipodi-0.dtd"
   xmlns:inkscape="http://www.inkscape.org/namespaces/inkscape"
   inkscape:version="1.0 (4035a4fb49, 2020-05-01)"
   sodipodi:docname="vulspalogo.svg"
   id="svg8"
   version="1.1"
   viewBox="0 0 168 140"
   height="140mm"
   width="168mm">
  <defs
     id="defs2" />
  <sodipodi:namedview
     inkscape:window-maximized="1"
     inkscape:window-y="-8"
     inkscape:window-x="-8"
     inkscape:window-height="1377"
     inkscape:window-width="3440"
     showgrid="false"
     inkscape:document-rotation="0"
     inkscape:current-layer="layer1"
     inkscape:document-units="mm"
     inkscape:cy="404.97666"
     inkscape:cx="309.5501"
     inkscape:zoom="3.959798"
     inkscape:pageshadow="2"
     inkscape:pageopacity="0.0"
     borderopacity="1.0"
     bordercolor="#666666"
     pagecolor="#ffffff"
     id="base" />
  <metadata
     id="metadata5">
    <rdf:RDF>
      <cc:Work
         rdf:about="">
        <dc:format>image/svg+xml</dc:format>
        <dc:type
           rdf:resource="http://purl.org/dc/dcmitype/StillImage" />
        <dc:title></dc:title>
      </cc:Work>
    </rdf:RDF>
  </metadata>
  <g
     id="layer1"
     inkscape:groupmode="layer"
     inkscape:label="Layer 1">
    <path
       class="logo-shape"
       transform="scale(0.26458333)"
       id="path850"
       d="m 223.79768,435.6789 -93.17059,-93.17084 h 26.76909 26.7691 l 66.2909,66.29126 c 36.45999,36.46019 66.4047,66.29126 66.54379,66.29126 0.1391,0 30.08381,-29.83107 66.5438,-66.29126 l 66.29091,-66.29126 h 26.89534 26.89536 l -84.85269,84.86867 c -46.66896,46.67777 -88.66681,88.60465 -93.32854,93.17084 l -8.47588,8.30218 z"
       style="font-variation-settings:normal;opacity:1;vector-effect:none;fill:#d6d6d6;fill-opacity:1;stroke:#000000;stroke-width:0.252538px;stroke-linecap:butt;stroke-linejoin:miter;stroke-miterlimit:4;stroke-dasharray:none;stroke-dashoffset:0;stroke-opacity:1;stop-color:#000000;stop-opacity:1" />
    <path
       class="logo-shape"
       transform="scale(0.26458333)"
       id="path852"
       d="m 224.00087,236.00212 93.37395,-93.37395 93.18808,93.18455 93.18809,93.18455 -8.90151,0.15547 c -4.89581,0.0855 -16.91327,0.17061 -26.70543,0.1891 l -17.80394,0.0336 -56.55935,-56.5051 C 362.6731,241.79256 332.75781,211.94951 327.30233,206.55248 l -9.91907,-9.81278 -1.45433,1.26075 c -0.79989,0.69342 -30.79136,30.53661 -66.64771,66.31819 l -65.19338,65.05744 h -26.73046 -26.73046 z"
       style="font-variation-settings:normal;opacity:1;vector-effect:none;fill:#d6d6d6;fill-opacity:1;stroke:#000000;stroke-width:0.252538px;stroke-linecap:butt;stroke-linejoin:miter;stroke-miterlimit:4;stroke-dasharray:none;stroke-dashoffset:0;stroke-opacity:1;stop-color:#000000;stop-opacity:1" />
    <path
       class="logo-shape"
       transform="scale(0.26458333)"
       id="path854"
       d="M 81.444464,223.37263 15.84825,157.77605 v -25.12688 -25.12689 l 78.034169,78.03381 c 42.918791,42.91859 78.034221,78.14787 78.034281,78.2873 7e-5,0.13942 -5.59701,5.84976 -12.43795,12.68965 l -12.43807,12.43617 z"
       style="font-variation-settings:normal;opacity:1;vector-effect:none;fill:#d6d6d6;fill-opacity:1;stroke:#000000;stroke-width:0.252538px;stroke-linecap:butt;stroke-linejoin:miter;stroke-miterlimit:4;stroke-dasharray:none;stroke-dashoffset:0;stroke-opacity:1;stop-color:#000000;stop-opacity:1" />
    <path
       class="logo-shape"
       transform="scale(0.26458333)"
       id="path856"
       d="m 57.074464,268.95569 -55.8741696,-55.8746 12.5014516,-12.49953 12.501453,-12.49954 55.873424,55.87342 55.873427,55.87343 -12.50071,12.50071 -12.50071,12.50071 z"
       style="font-variation-settings:normal;opacity:1;vector-effect:none;fill:#d6d6d6;fill-opacity:1;stroke:#000000;stroke-width:0.252538px;stroke-linecap:butt;stroke-linejoin:miter;stroke-miterlimit:4;stroke-dasharray:none;stroke-dashoffset:0;stroke-opacity:1;stop-color:#000000;stop-opacity:1" />
    <path
       class="logo-shape"
       transform="scale(0.26458333)"
       id="path858"
       d="m 474.83585,276.34261 -12.37289,-12.37483 78.09691,-78.09691 78.09691,-78.09691 v 25.00286 25.00285 l -65.4736,65.46888 c -36.01047,36.00789 -65.58628,65.46889 -65.72401,65.46889 -0.13774,0 -5.81823,-5.56868 -12.62332,-12.37483 z"
       style="font-variation-settings:normal;opacity:1;vector-effect:none;fill:#d6d6d6;fill-opacity:1;stroke:#000000;stroke-width:0.252538px;stroke-linecap:butt;stroke-linejoin:miter;stroke-miterlimit:4;stroke-dasharray:none;stroke-dashoffset:0;stroke-opacity:1;stop-color:#000000;stop-opacity:1" />
    <path
       class="logo-shape"
       transform="scale(0.26458333)"
       id="path860"
       d="m 508.67597,312.45557 -12.37288,-12.37481 55.99969,-55.99969 55.99968,-55.99969 12.43736,12.43736 12.43736,12.43736 -55.93671,55.93715 c -30.76519,30.76543 -55.99407,55.93714 -56.06417,55.93714 -0.0701,0 -5.69524,-5.56867 -12.50033,-12.37482 z"
       style="font-variation-settings:normal;opacity:1;vector-effect:none;fill:#d6d6d6;fill-opacity:1;stroke:#000000;stroke-width:0.252538px;stroke-linecap:butt;stroke-linejoin:miter;stroke-miterlimit:4;stroke-dasharray:none;stroke-dashoffset:0;stroke-opacity:1;stop-color:#000000;stop-opacity:1" />
    <path
       class="logo-shape"
       transform="scale(0.26458333)"
       id="path862"
       d="m 325.96508,412.56906 v -26.45953 l 24.58039,-24.64179 c 13.51921,-13.55298 24.7212,-24.90539 24.8933,-25.22758 0.2993,-0.56031 -0.76959,-1.67003 -24.58039,-25.51954 l -24.8933,-24.93376 v -26.12427 -26.12427 l 51.13897,51.13851 c 28.12644,28.12617 51.13897,51.20886 51.13897,51.29486 0,0.15432 -21.89205,22.23001 -75.0645,75.69417 l -27.21344,27.36274 z"
       style="font-variation-settings:normal;opacity:1;vector-effect:none;fill:#d6d6d6;fill-opacity:1;stroke:#000000;stroke-width:0.252538px;stroke-linecap:butt;stroke-linejoin:miter;stroke-miterlimit:4;stroke-dasharray:none;stroke-dashoffset:0;stroke-opacity:1;stop-color:#000000;stop-opacity:1" />
    <path
       class="logo-shape"
       transform="scale(0.26458333)"
       id="path864"
       d="M 273.07092,403.9706 C 253.7713,384.54193 230.64618,361.28647 221.68178,352.29178 l -16.29893,-16.35398 51.38915,-51.39212 51.38914,-51.39212 0.15804,1.70737 c 0.0869,0.93906 0.17215,12.95774 0.1894,26.70818 l 0.0314,25.00079 -24.68512,24.68608 -24.68512,24.68609 24.68512,24.68608 24.68512,24.68608 -0.0314,25.25334 c -0.0172,13.88933 -0.10249,26.0351 -0.1894,26.9906 l -0.15804,1.73727 z"
       style="font-variation-settings:normal;opacity:1;vector-effect:none;fill:#d6d6d6;fill-opacity:1;stroke:#000000;stroke-width:0.252538px;stroke-linecap:butt;stroke-linejoin:miter;stroke-miterlimit:4;stroke-dasharray:none;stroke-dashoffset:0;stroke-opacity:1;stop-color:#000000;stop-opacity:1" />
    <path
       class="logo-shape"
       transform="scale(0.26458333)"
       id="path866"
       d="M 318.1364,102.59618 V 75.70087 L 355.00696,38.830952 391.87753,1.9610327 V 28.856344 55.751656 L 355.00696,92.621574 318.1364,129.49149 Z"
       style="font-variation-settings:normal;opacity:1;vector-effect:none;fill:#d6d6d6;fill-opacity:1;stroke:#000000;stroke-width:0.252538px;stroke-linecap:butt;stroke-linejoin:miter;stroke-miterlimit:4;stroke-dasharray:none;stroke-dashoffset:0;stroke-opacity:1;stop-color:#000000;stop-opacity:1" />
  </g>
</svg>
