<?xml version="1.0" encoding="UTF-8" standalone="no"?>
<svg
   xmlns:dc="http://purl.org/dc/elements/1.1/"
   xmlns:cc="http://creativecommons.org/ns#"
   xmlns:rdf="http://www.w3.org/1999/02/22-rdf-syntax-ns#"
   xmlns:svg="http://www.w3.org/2000/svg"
   xmlns="http://www.w3.org/2000/svg"
   xmlns:sodipodi="http://sodipodi.sourceforge.net/DTD/sodipodi-0.dtd"
   xmlns:inkscape="http://www.inkscape.org/namespaces/inkscape"
   width="168mm"
   height="140mm"
   viewBox="0 0 168 140"
   version="1.1"
   id="svg8"
   sodipodi:docname="vulspalogoblack.svg"
   inkscape:version="1.0 (4035a4fb49, 2020-05-01)">
  <defs
     id="defs2" />
  <sodipodi:namedview
     id="base"
     pagecolor="#ffffff"
     bordercolor="#666666"
     borderopacity="1.0"
     inkscape:pageopacity="0.0"
     inkscape:pageshadow="2"
     inkscape:zoom="3.959798"
     inkscape:cx="309.5501"
     inkscape:cy="112.03242"
     inkscape:document-units="mm"
     inkscape:current-layer="layer1"
     inkscape:document-rotation="0"
     showgrid="false"
     inkscape:window-width="3440"
     inkscape:window-height="1377"
     inkscape:window-x="-8"
     inkscape:window-y="-8"
     inkscape:window-maximized="1" />
  <metadata
     id="metadata5">
    <rdf:RDF>
      <cc:Work
         rdf:about="">
        <dc:format>image/svg+xml</dc:format>
        <dc:type
           rdf:resource="http://purl.org/dc/dcmitype/StillImage" />
        <dc:title></dc:title>
      </cc:Work>
    </rdf:RDF>
  </metadata>
  <g
     inkscape:label="Layer 1"
     inkscape:groupmode="layer"
     id="layer1">
    <path
       style="font-variation-settings:normal;opacity:1;vector-effect:none;fill:#d6d6d6;fill-opacity:1;stroke:#000000;stroke-width:0.252538px;stroke-linecap:butt;stroke-linejoin:miter;stroke-miterlimit:4;stroke-dasharray:none;stroke-dashoffset:0;stroke-opacity:1;stop-color:#000000;stop-opacity:1"
       d="m 223.79768,435.6789 -93.17059,-93.17084 h 26.76909 26.7691 l 66.2909,66.29126 c 36.45999,36.46019 66.4047,66.29126 66.54379,66.29126 0.1391,0 30.08381,-29.83107 66.5438,-66.29126 l 66.29091,-66.29126 h 26.89534 26.89536 l -84.85269,84.86867 c -46.66896,46.67777 -88.66681,88.60465 -93.32854,93.17084 l -8.47588,8.30218 z"
       id="path850"
       transform="scale(0.26458333)"
       class="logo-shape" />
    <path
       style="font-variation-settings:normal;opacity:1;vector-effect:none;fill:#d6d6d6;fill-opacity:1;stroke:#000000;stroke-width:0.252538px;stroke-linecap:butt;stroke-linejoin:miter;stroke-miterlimit:4;stroke-dasharray:none;stroke-dashoffset:0;stroke-opacity:1;stop-color:#000000;stop-opacity:1"
       d="m 224.00087,236.00212 93.37395,-93.37395 93.18808,93.18455 93.18809,93.18455 -8.90151,0.15547 c -4.89581,0.0855 -16.91327,0.17061 -26.70543,0.1891 l -17.80394,0.0336 -56.55935,-56.5051 C 362.6731,241.79256 332.75781,211.94951 327.30233,206.55248 l -9.91907,-9.81278 -1.45433,1.26075 c -0.79989,0.69342 -30.79136,30.53661 -66.64771,66.31819 l -65.19338,65.05744 h -26.73046 -26.73046 z"
       id="path852"
       transform="scale(0.26458333)"
       class="logo-shape" />
    <path
       style="font-variation-settings:normal;opacity:1;vector-effect:none;fill:#d6d6d6;fill-opacity:1;stroke:#000000;stroke-width:0.252538px;stroke-linecap:butt;stroke-linejoin:miter;stroke-miterlimit:4;stroke-dasharray:none;stroke-dashoffset:0;stroke-opacity:1;stop-color:#000000;stop-opacity:1"
       d="M 81.444464,223.37263 15.84825,157.77605 v -25.12688 -25.12689 l 78.034169,78.03381 c 42.918791,42.91859 78.034221,78.14787 78.034281,78.2873 7e-5,0.13942 -5.59701,5.84976 -12.43795,12.68965 l -12.43807,12.43617 z"
       id="path854"
       transform="scale(0.26458333)"
       class="logo-shape" />
    <path
       style="font-variation-settings:normal;opacity:1;vector-effect:none;fill:#d6d6d6;fill-opacity:1;stroke:#000000;stroke-width:0.252538px;stroke-linecap:butt;stroke-linejoin:miter;stroke-miterlimit:4;stroke-dasharray:none;stroke-dashoffset:0;stroke-opacity:1;stop-color:#000000;stop-opacity:1"
       d="m 57.074464,268.95569 -55.8741696,-55.8746 12.5014516,-12.49953 12.501453,-12.49954 55.873424,55.87342 55.873427,55.87343 -12.50071,12.50071 -12.50071,12.50071 z"
       id="path856"
       transform="scale(0.26458333)"
       class="logo-shape" />
    <path
       style="font-variation-settings:normal;opacity:1;vector-effect:none;fill:#d6d6d6;fill-opacity:1;stroke:#000000;stroke-width:0.252538px;stroke-linecap:butt;stroke-linejoin:miter;stroke-miterlimit:4;stroke-dasharray:none;stroke-dashoffset:0;stroke-opacity:1;stop-color:#000000;stop-opacity:1"
       d="m 474.83585,276.34261 -12.37289,-12.37483 78.09691,-78.09691 78.09691,-78.09691 v 25.00286 25.00285 l -65.4736,65.46888 c -36.01047,36.00789 -65.58628,65.46889 -65.72401,65.46889 -0.13774,0 -5.81823,-5.56868 -12.62332,-12.37483 z"
       id="path858"
       transform="scale(0.26458333)"
       class="logo-shape" />
    <path
       style="font-variation-settings:normal;opacity:1;vector-effect:none;fill:#d6d6d6;fill-opacity:1;stroke:#000000;stroke-width:0.252538px;stroke-linecap:butt;stroke-linejoin:miter;stroke-miterlimit:4;stroke-dasharray:none;stroke-dashoffset:0;stroke-opacity:1;stop-color:#000000;stop-opacity:1"
       d="m 508.67597,312.45557 -12.37288,-12.37481 55.99969,-55.99969 55.99968,-55.99969 12.43736,12.43736 12.43736,12.43736 -55.93671,55.93715 c -30.76519,30.76543 -55.99407,55.93714 -56.06417,55.93714 -0.0701,0 -5.69524,-5.56867 -12.50033,-12.37482 z"
       id="path860"
       transform="scale(0.26458333)"
       class="logo-shape" />
    <path
       style="font-variation-settings:normal;opacity:1;vector-effect:none;fill:#d6d6d6;fill-opacity:1;stroke:#000000;stroke-width:0.252538px;stroke-linecap:butt;stroke-linejoin:miter;stroke-miterlimit:4;stroke-dasharray:none;stroke-dashoffset:0;stroke-opacity:1;stop-color:#000000;stop-opacity:1"
       d="m 325.96508,412.56906 v -26.45953 l 24.58039,-24.64179 c 13.51921,-13.55298 24.7212,-24.90539 24.8933,-25.22758 0.2993,-0.56031 -0.76959,-1.67003 -24.58039,-25.51954 l -24.8933,-24.93376 v -26.12427 -26.12427 l 51.13897,51.13851 c 28.12644,28.12617 51.13897,51.20886 51.13897,51.29486 0,0.15432 -21.89205,22.23001 -75.0645,75.69417 l -27.21344,27.36274 z"
       id="path862"
       transform="scale(0.26458333)"
       class="logo-shape" />
    <path
       style="font-variation-settings:normal;opacity:1;vector-effect:none;fill:#d6d6d6;fill-opacity:1;stroke:#000000;stroke-width:0.252538px;stroke-linecap:butt;stroke-linejoin:miter;stroke-miterlimit:4;stroke-dasharray:none;stroke-dashoffset:0;stroke-opacity:1;stop-color:#000000;stop-opacity:1"
       d="M 273.07092,403.9706 C 253.7713,384.54193 230.64618,361.28647 221.68178,352.29178 l -16.29893,-16.35398 51.38915,-51.39212 51.38914,-51.39212 0.15804,1.70737 c 0.0869,0.93906 0.17215,12.95774 0.1894,26.70818 l 0.0314,25.00079 -24.68512,24.68608 -24.68512,24.68609 24.68512,24.68608 24.68512,24.68608 -0.0314,25.25334 c -0.0172,13.88933 -0.10249,26.0351 -0.1894,26.9906 l -0.15804,1.73727 z"
       id="path864"
       transform="scale(0.26458333)"
       class="logo-shape" />
    <path
       style="font-variation-settings:normal;opacity:1;vector-effect:none;fill:#d6d6d6;fill-opacity:1;stroke:#000000;stroke-width:0.252538px;stroke-linecap:butt;stroke-linejoin:miter;stroke-miterlimit:4;stroke-dasharray:none;stroke-dashoffset:0;stroke-opacity:1;stop-color:#000000;stop-opacity:1"
       d="M 318.1364,102.59618 V 75.70087 L 355.00696,38.830952 391.87753,1.9610327 V 28.856344 55.751656 L 355.00696,92.621574 318.1364,129.49149 Z"
       id="path866"
       transform="scale(0.26458333)"
       class="logo-shape" />
    <path
       transform="scale(0.26458333)"
       id="path861"
       d="M 224.17648,435.64432 131.3847,342.85228 h 26.3903 26.3903 l 61.74538,61.76146 c 33.95996,33.9688 63.88038,63.81724 66.48983,66.32987 l 4.74444,4.5684 66.35252,-66.32986 66.35251,-66.32987 h 26.50891 26.50887 l -84.72641,84.7424 c -46.59951,46.60832 -88.4269,88.36474 -92.94974,92.79204 l -8.22334,8.04964 z"
       style="font-variation-settings:normal;opacity:1;vector-effect:none;fill:#1a1a1a;fill-opacity:1;stroke:#000000;stroke-width:0.252538px;stroke-linecap:butt;stroke-linejoin:miter;stroke-miterlimit:4;stroke-dasharray:none;stroke-dashoffset:0;stroke-opacity:1;stop-color:#000000;stop-opacity:1" />
    <path
       transform="scale(0.26458333)"
       id="path863"
       d="m 224.25535,236.09187 93.12335,-93.12335 92.80951,92.80768 92.80954,92.80767 -2.59024,0.15707 c -1.42462,0.0864 -13.21577,0.23346 -26.20255,0.32684 l -23.61231,0.16976 -31.31473,-31.34186 c -17.2231,-17.23803 -47.19854,-47.14734 -66.6121,-66.46514 l -35.29736,-35.12327 -1.82574,1.72597 c -1.00416,0.94928 -31.05043,30.85357 -66.76949,66.45397 l -64.94375,64.72801 h -26.34874 -26.34875 z"
       style="font-variation-settings:normal;opacity:1;vector-effect:none;fill:#ffffff;fill-opacity:1;stroke:#000000;stroke-width:0.252538px;stroke-linecap:butt;stroke-linejoin:miter;stroke-miterlimit:4;stroke-dasharray:none;stroke-dashoffset:0;stroke-opacity:1;stop-color:#000000;stop-opacity:1" />
    <path
       transform="scale(0.26458333)"
       id="path865"
       d="m 224.63415,236.21814 92.74455,-92.74455 92.4305,92.42887 92.43048,92.42888 -3.6608,0.15729 c -2.01343,0.0865 -13.5772,0.23726 -25.69724,0.33498 l -22.03645,0.17768 -31.94608,-31.91286 C 354.22043,232.47698 317.65491,196.12762 317.33792,196.12762 c -0.17889,0 -7.77167,7.42318 -16.87285,16.49595 -9.10117,9.07278 -39.10292,38.96066 -66.67055,66.41753 l -50.12295,49.92158 h -25.89098 -25.89098 z"
       style="font-variation-settings:normal;opacity:1;vector-effect:none;fill:#000000;fill-opacity:1;stroke:#000000;stroke-width:0.252538px;stroke-linecap:butt;stroke-linejoin:miter;stroke-miterlimit:4;stroke-dasharray:none;stroke-dashoffset:0;stroke-opacity:1;stop-color:#000000;stop-opacity:1" />
    <path
       transform="scale(0.26458333)"
       id="path867"
       d="m 256.84746,387.26507 -51.06115,-51.35759 51.06115,-51.07747 51.06114,-51.07747 0.15598,3.85284 c 0.0858,2.11906 0.17102,13.96721 0.18941,26.32921 l 0.0334,22.47638 -24.74874,24.74778 -24.74874,24.74777 24.74874,24.74969 24.74874,24.7497 -0.0334,22.72795 c -0.0184,12.50038 -0.10362,24.47415 -0.18941,26.60838 l -0.15598,3.88042 z"
       style="font-variation-settings:normal;opacity:1;vector-effect:none;fill:#000000;fill-opacity:1;stroke:#000000;stroke-width:0.252538px;stroke-linecap:butt;stroke-linejoin:miter;stroke-miterlimit:4;stroke-dasharray:none;stroke-dashoffset:0;stroke-opacity:1;stop-color:#000000;stop-opacity:1" />
    <path
       transform="scale(0.26458333)"
       id="path869"
       d="m 326.21762,412.28912 v -26.08086 l 24.74873,-24.82139 c 16.45999,-16.5083 24.74874,-24.99213 24.74874,-25.33119 0,-0.69348 -8.80288,-9.75832 -31.16617,-32.09362 l -18.3313,-18.30836 0.006,-25.75954 0.006,-25.75955 50.75415,50.79902 c 27.91478,27.93946 50.75415,50.90535 50.75415,51.03532 0,0.22642 -17.44444,17.84005 -75.06419,75.79225 l -26.45614,26.60878 z"
       style="font-variation-settings:normal;opacity:1;vector-effect:none;fill:#000000;fill-opacity:1;stroke:#000000;stroke-width:0.252538px;stroke-linecap:butt;stroke-linejoin:miter;stroke-miterlimit:4;stroke-dasharray:none;stroke-dashoffset:0;stroke-opacity:1;stop-color:#000000;stop-opacity:1" />
    <path
       transform="scale(0.26458333)"
       id="path871"
       d="M 57.264188,268.73202 1.5803835,213.04779 13.891474,200.7367 l 12.311091,-12.3111 55.68498,55.68499 55.684975,55.68497 -12.31226,12.31035 -12.31227,12.31034 z"
       style="font-variation-settings:normal;opacity:1;vector-effect:none;fill:#000000;fill-opacity:1;stroke:#000000;stroke-width:0.252538px;stroke-linecap:butt;stroke-linejoin:miter;stroke-miterlimit:4;stroke-dasharray:none;stroke-dashoffset:0;stroke-opacity:1;stop-color:#000000;stop-opacity:1" />
    <path
       transform="scale(0.26458333)"
       id="path887"
       d="m 81.571299,223.09165 -65.470511,-65.47646 0.0099,-24.74855 0.0099,-24.74856 77.645595,77.72375 c 42.705077,42.74806 77.645597,77.85224 77.645597,78.0093 0,0.15706 -5.48323,5.78263 -12.18496,12.50127 l -12.18497,12.21571 z"
       style="font-variation-settings:normal;opacity:1;vector-effect:none;fill:#000000;fill-opacity:1;stroke:#000000;stroke-width:0.252538px;stroke-linecap:butt;stroke-linejoin:miter;stroke-miterlimit:4;stroke-dasharray:none;stroke-dashoffset:0;stroke-opacity:1;stop-color:#000000;stop-opacity:1" />
    <path
       transform="scale(0.26458333)"
       id="path889"
       d="M 318.38893,102.30905 V 75.792548 L 355.00696,39.175172 391.62499,2.5577958 V 29.074301 55.590805 l -36.61803,36.617375 -36.61803,36.61738 z"
       style="font-variation-settings:normal;opacity:1;vector-effect:none;fill:#000000;fill-opacity:1;stroke:#000000;stroke-width:0.252538px;stroke-linecap:butt;stroke-linejoin:miter;stroke-miterlimit:4;stroke-dasharray:none;stroke-dashoffset:0;stroke-opacity:1;stop-color:#000000;stop-opacity:1" />
    <path
       transform="scale(0.26458333)"
       id="path891"
       d="m 475.09559,276.1659 -12.26844,-12.23179 77.78854,-77.78159 77.78855,-77.78159 v 24.62251 24.62251 l -61.17736,61.11533 c -33.64755,33.61343 -63.1316,63.03932 -65.52011,65.39087 l -4.34274,4.27554 z"
       style="font-variation-settings:normal;opacity:1;vector-effect:none;fill:#000000;fill-opacity:1;stroke:#000000;stroke-width:0.252538px;stroke-linecap:butt;stroke-linejoin:miter;stroke-miterlimit:4;stroke-dasharray:none;stroke-dashoffset:0;stroke-opacity:1;stop-color:#000000;stop-opacity:1" />
    <path
       inkscape:export-ydpi="96"
       inkscape:export-xdpi="96"
       transform="scale(0.26458333)"
       id="path893"
       d="m 508.86522,312.23144 -12.18361,-12.18556 55.81017,-55.80974 55.81017,-55.80974 12.24886,12.24691 12.24886,12.24691 -55.74796,55.74839 c -30.66137,30.66161 -55.80531,55.74839 -55.87542,55.74839 -0.0701,0 -5.61008,-5.4835 -12.31107,-12.18556 z"
       style="font-variation-settings:normal;opacity:1;vector-effect:none;fill:#000000;fill-opacity:1;stroke:#000000;stroke-width:0.252538px;stroke-linecap:butt;stroke-linejoin:miter;stroke-miterlimit:4;stroke-dasharray:none;stroke-dashoffset:0;stroke-opacity:1;stop-color:#000000;stop-opacity:1" />
  </g>
</svg>
