<?xml version="1.0" encoding="UTF-8" standalone="no"?>
<svg
   xmlns:dc="http://purl.org/dc/elements/1.1/"
   xmlns:cc="http://creativecommons.org/ns#"
   xmlns:rdf="http://www.w3.org/1999/02/22-rdf-syntax-ns#"
   xmlns:svg="http://www.w3.org/2000/svg"
   xmlns="http://www.w3.org/2000/svg"
   xmlns:sodipodi="http://sodipodi.sourceforge.net/DTD/sodipodi-0.dtd"
   xmlns:inkscape="http://www.inkscape.org/namespaces/inkscape"
   inkscape:version="1.0 (4035a4fb49, 2020-05-01)"
   sodipodi:docname="vulspalogo.svg"
   id="svg8"
   version="1.1"
   viewBox="0 0 210 297"
   height="297mm"
   width="210mm">
  <defs
     id="defs2" />
  <sodipodi:namedview
     inkscape:window-maximized="1"
     inkscape:window-y="-8"
     inkscape:window-x="-8"
     inkscape:window-height="1377"
     inkscape:window-width="3440"
     showgrid="false"
     inkscape:document-rotation="0"
     inkscape:current-layer="layer1"
     inkscape:document-units="mm"
     inkscape:cy="713.59824"
     inkscape:cx="273.52485"
     inkscape:zoom="2.8"
     inkscape:pageshadow="2"
     inkscape:pageopacity="0.0"
     borderopacity="1.0"
     bordercolor="#666666"
     pagecolor="#ffffff"
     id="base" />
  <metadata
     id="metadata5">
    <rdf:RDF>
      <cc:Work
         rdf:about="">
        <dc:format>image/svg+xml</dc:format>
        <dc:type
           rdf:resource="http://purl.org/dc/dcmitype/StillImage" />
      </cc:Work>
    </rdf:RDF>
  </metadata>
  <g
     id="layer1"
     inkscape:groupmode="layer"
     inkscape:label="Layer 1">
    <path
       style="fill:#ff0000;fill-opacity:0;stroke-width:0.357143"
       d="m 284.06056,861.45538 -93.57091,-93.57143 h 27.32081 27.32082 l 66.33964,66.33893 66.33964,66.33892 66.33965,-66.33892 66.33964,-66.33893 h 27.32082 27.32082 l -93.57093,93.57143 c -51.464,51.46428 -93.6515,93.57143 -93.75,93.57143 -0.0985,0 -42.28599,-42.10715 -93.75,-93.57143 z"
       id="path863"
       transform="scale(0.26458333)" />
    <path
       style="fill:#ff0000;fill-opacity:0;stroke-width:0.357143"
       d="m 284.23914,661.63395 93.74949,-93.75 93.66126,93.66071 93.66128,93.66072 -27.22984,0.0915 -27.22983,0.0915 -66.25297,-66.25225 c -36.43913,-36.43874 -66.41368,-66.25225 -66.61012,-66.25225 -0.19642,0 -30.16931,29.8125 -66.60642,66.25 l -66.24928,66.25 h -27.32153 -27.32153 z"
       id="path881"
       transform="scale(0.26458333)" />
    <path
       style="fill:#ff0000;fill-opacity:0;stroke-width:0.357143"
       d="M 142.00663,649.40144 76.381993,583.77608 v -25.53525 -25.53525 l 78.481147,78.48115 78.48115,78.48115 -12.67569,12.67946 c -6.97163,6.97371 -12.75706,12.67947 -12.85651,12.67947 -0.0995,0 -29.71191,-29.53142 -65.80546,-65.62537 z"
       id="path883"
       transform="scale(0.26458333)" />
    <path
       style="fill:#ff0000;fill-opacity:0;stroke-width:0.357143"
       d="m 117.54086,694.93568 -56.160304,-56.16116 12.769706,-12.76601 12.769705,-12.76601 56.160303,56.16115 56.1603,56.16116 -12.7697,12.766 -12.76971,12.76602 z"
       id="path885"
       transform="scale(0.26458333)" />
    <path
       style="fill:#ff0000;fill-opacity:0;stroke-width:0.357143"
       d="m 535.30967,702.34734 -12.67569,-12.67946 78.48115,-78.48115 78.48115,-78.48115 v 25.53598 25.53598 l -65.62537,65.62463 c -36.09395,36.09355 -65.7064,65.62464 -65.80545,65.62464 -0.0991,0 -5.88416,-5.70576 -12.85579,-12.67947 z"
       id="path887"
       transform="scale(0.26458333)" />
    <path
       style="fill:#ff0000;fill-opacity:0;stroke-width:0.357143"
       d="m 569.23928,738.41981 -12.6764,-12.68018 56.24832,-56.24917 56.24831,-56.24917 12.67872,12.67872 12.67871,12.67871 -56.25063,56.25063 -56.25063,56.25063 z"
       id="path889"
       transform="scale(0.26458333)" />
    <path
       style="fill:#ff0000;fill-opacity:0;stroke-width:0.357143"
       d="m 386.02485,838.87514 v -27.60026 l 24.82144,-24.81951 24.82143,-24.81951 -24.82143,-24.82333 -24.82144,-24.82334 v -27.32002 -27.32002 l 52.14077,52.13986 52.14077,52.13985 -18.14058,18.21683 c -9.97731,10.01926 -33.44066,33.60973 -52.14077,52.42327 l -34.00019,34.20643 z"
       id="path891"
       transform="scale(0.26458333)" />
    <path
       style="fill:#ff0000;fill-opacity:0;stroke-width:0.357143"
       d="m 317.55201,813.85945 -51.8657,-52.2255 51.8657,-51.8755 51.8657,-51.8755 0.0915,27.22943 0.0915,27.22944 -24.64479,24.6467 -24.64479,24.64671 24.64476,24.64476 24.64477,24.64477 -0.0915,27.58009 -0.0915,27.5801 z"
       id="path893"
       transform="scale(0.26458333)" />
    <path
       style="fill:#ff0000;fill-opacity:0;stroke-width:0.357143"
       d="m 378.52485,528.59695 v -27.32143 l 37.14286,-37.14157 37.14285,-37.14157 v 27.32143 27.32143 l -37.14285,37.14157 -37.14286,37.14157 z"
       id="path895"
       transform="scale(0.26458333)" />
    <path
       style="font-variation-settings:normal;opacity:1;vector-effect:none;fill:#ffffff;fill-opacity:1;stroke:#000000;stroke-width:0.357142px;stroke-linecap:butt;stroke-linejoin:miter;stroke-miterlimit:4;stroke-dasharray:none;stroke-dashoffset:0;stroke-opacity:1;stop-color:#000000;stop-opacity:1"
       d="m 284.23914,661.63395 93.74948,-93.75 93.66127,93.66071 93.66128,93.66072 -27.22984,0.0915 -27.22983,0.0915 -66.25297,-66.25225 c -36.43913,-36.43874 -66.41368,-66.25225 -66.61012,-66.25225 -0.19642,0 -30.16931,29.8125 -66.60642,66.25 l -66.24928,66.25 h -27.32153 -27.32153 z"
       id="path942"
       transform="scale(0.26458333)" />
    <path
       style="font-variation-settings:normal;opacity:1;vector-effect:none;fill:#ffffff;fill-opacity:1;stroke:#000000;stroke-width:0.357142px;stroke-linecap:butt;stroke-linejoin:miter;stroke-miterlimit:4;stroke-dasharray:none;stroke-dashoffset:0;stroke-opacity:1;stop-color:#000000;stop-opacity:1"
       d="m 284.06056,861.45538 -93.57091,-93.57143 h 27.32081 27.32081 l 66.33965,66.33893 66.33964,66.33892 66.33965,-66.33892 66.33964,-66.33893 h 27.32082 27.32082 l -93.57093,93.57143 c -51.464,51.46428 -93.6515,93.57143 -93.75,93.57143 -0.0985,0 -42.28599,-42.10715 -93.75,-93.57143 z"
       id="path944"
       transform="scale(0.26458333)" />
    <path
       style="font-variation-settings:normal;opacity:1;vector-effect:none;fill:#ffffff;fill-opacity:1;stroke:#000000;stroke-width:0.357142px;stroke-linecap:butt;stroke-linejoin:miter;stroke-miterlimit:4;stroke-dasharray:none;stroke-dashoffset:0;stroke-opacity:1;stop-color:#000000;stop-opacity:1"
       d="m 317.55201,813.85945 -51.8657,-52.2255 51.8657,-51.8755 51.8657,-51.8755 0.0915,27.22943 0.0915,27.22944 -24.64479,24.6467 -24.64479,24.64671 24.64476,24.64476 24.64477,24.64477 -0.0915,27.58009 -0.0915,27.5801 z"
       id="path948"
       transform="scale(0.26458333)" />
    <path
       style="font-variation-settings:normal;opacity:1;vector-effect:none;fill:#ffffff;fill-opacity:1;stroke:#000000;stroke-width:0.357142px;stroke-linecap:butt;stroke-linejoin:miter;stroke-miterlimit:4;stroke-dasharray:none;stroke-dashoffset:0;stroke-opacity:1;stop-color:#000000;stop-opacity:1"
       d="m 535.30967,702.34734 -12.67569,-12.67946 78.48115,-78.48115 78.48115,-78.48115 v 25.53598 25.53598 l -65.62537,65.62463 c -36.09395,36.09355 -65.7064,65.62464 -65.80545,65.62464 -0.0991,0 -5.88416,-5.70576 -12.85579,-12.67947 z"
       id="path950"
       transform="scale(0.26458333)" />
    <path
       style="font-variation-settings:normal;opacity:1;vector-effect:none;fill:#ffffff;fill-opacity:1;stroke:#000000;stroke-width:0.357142px;stroke-linecap:butt;stroke-linejoin:miter;stroke-miterlimit:4;stroke-dasharray:none;stroke-dashoffset:0;stroke-opacity:1;stop-color:#000000;stop-opacity:1"
       d="m 569.23928,738.41981 -12.6764,-12.68018 56.24832,-56.24917 56.24831,-56.24917 12.67872,12.67872 12.67871,12.67871 -56.25063,56.25063 -56.25063,56.25063 z"
       id="path952"
       transform="scale(0.26458333)" />
    <path
       style="font-variation-settings:normal;opacity:1;vector-effect:none;fill:#ffffff;fill-opacity:1;stroke:#000000;stroke-width:0.357142px;stroke-linecap:butt;stroke-linejoin:miter;stroke-miterlimit:4;stroke-dasharray:none;stroke-dashoffset:0;stroke-opacity:1;stop-color:#000000;stop-opacity:1"
       d="m 386.38199,838.5792 v -26.94718 l 24.82143,-24.8195 c 13.65179,-13.65072 24.82143,-24.98108 24.82143,-25.17857 0,-0.19749 -11.16964,-11.52785 -24.82143,-25.17857 l -24.82143,-24.8195 v -26.60765 -26.60764 l 51.59869,51.59776 51.59868,51.59775 -4.36654,4.4609 c -2.4016,2.45349 -25.62101,25.8333 -51.59868,51.95513 l -47.23215,47.49424 z"
       id="path954"
       transform="scale(0.26458333)" />
    <path
       style="font-variation-settings:normal;opacity:1;vector-effect:none;fill:#ffffff;fill-opacity:1;stroke:#000000;stroke-width:0.357142px;stroke-linecap:butt;stroke-linejoin:miter;stroke-miterlimit:4;stroke-dasharray:none;stroke-dashoffset:0;stroke-opacity:1;stop-color:#000000;stop-opacity:1"
       d="m 378.52485,528.59695 v -27.32143 l 37.14286,-37.14157 37.14285,-37.14157 v 27.32143 27.32143 l -37.14285,37.14157 -37.14286,37.14157 z"
       id="path956"
       transform="scale(0.26458333)" />
    <path
       style="font-variation-settings:normal;opacity:1;vector-effect:none;fill:#ffffff;fill-opacity:1;stroke:#000000;stroke-width:0.357142px;stroke-linecap:butt;stroke-linejoin:miter;stroke-miterlimit:4;stroke-dasharray:none;stroke-dashoffset:0;stroke-opacity:1;stop-color:#000000;stop-opacity:1"
       d="M 142.00663,649.40144 76.381993,583.77608 v -25.53525 -25.53525 l 78.481147,78.48115 78.48115,78.48115 -12.67569,12.67946 c -6.97163,6.97371 -12.75706,12.67947 -12.85651,12.67947 -0.0995,0 -29.71191,-29.53142 -65.80546,-65.62537 z"
       id="path958"
       transform="scale(0.26458333)" />
    <path
       style="font-variation-settings:normal;opacity:1;vector-effect:none;fill:#ffffff;fill-opacity:1;stroke:#000000;stroke-width:0.357142px;stroke-linecap:butt;stroke-linejoin:miter;stroke-miterlimit:4;stroke-dasharray:none;stroke-dashoffset:0;stroke-opacity:1;stop-color:#000000;stop-opacity:1"
       d="m 117.54086,694.93568 -56.160304,-56.16116 12.769706,-12.76601 12.769705,-12.76601 56.160303,56.16115 56.1603,56.16116 -12.7697,12.766 -12.76971,12.76602 z"
       id="path960"
       transform="scale(0.26458333)" />
  </g>
</svg>
